<?xml version="1.0" standalone="yes"?>

<svg version="1.1" viewBox="0.0 0.0 920.6876640419947 196.66929133858267" fill="none" stroke="none" stroke-linecap="square" stroke-miterlimit="10" xmlns="http://www.w3.org/2000/svg" xmlns:xlink="http://www.w3.org/1999/xlink"><clipPath id="p.0"><path d="m0 0l920.6877 0l0 196.6693l-920.6877 0l0 -196.6693z" clip-rule="nonzero"></path></clipPath><g clip-path="url(#p.0)"><path fill="#000000" fill-opacity="0.0" d="m0 0l920.6877 0l0 196.6693l-920.6877 0z" fill-rule="nonzero"></path><path fill="#cfe2f3" d="m390.01575 30.335922l308.97638 0l0 111.968506l-308.97638 0z" fill-rule="nonzero"></path><path stroke="#000000" stroke-width="1.0" stroke-linejoin="round" stroke-linecap="butt" d="m390.01575 30.335922l308.97638 0l0 111.968506l-308.97638 0z" fill-rule="nonzero"></path><path fill="#000000" fill-opacity="0.0" d="m13.380577 53.569553l281.48032 0l0 68.66142l-281.48032 0z" fill-rule="nonzero"></path><path fill="#000000" d="m22.568077 93.28956l5.984375 -8.546875l-5.734375 -8.046875l5.359375 0l2.9375 4.5625l3.09375 -4.5625l5.15625 0l-5.625 7.859375l6.140625 8.734375l-5.390625 0l-3.375 -5.140625l-3.40625 5.140625l-5.140625 0z" fill-rule="nonzero"></path><path fill="#000000" d="m65.97433 79.82081l-15.125 0l0 -2.625l15.125 0l0 2.625zm0 6.953125l-15.125 0l0 -2.625l15.125 0l0 2.625zm12.84375 12.875l0 -29.265625l6.203125 0l0 2.328125l-3.390625 0l0 24.609375l3.390625 0l0 2.328125l-6.203125 0zm6.953125 -6.359375l6.0625 -8.625l-5.609375 -7.96875l3.515625 0l2.546875 3.890625q0.71875 1.109375 1.15625 1.859375q0.6875 -1.03125 1.265625 -1.828125l2.796875 -3.921875l3.359375 0l-5.734375 7.8125l6.171875 8.78125l-3.453125 0l-3.40625 -5.15625l-0.90625 -1.390625l-4.359375 6.546875l-3.40625 0z" fill-rule="nonzero"></path><path fill="#000000" d="m109.36495 105.28956l-1.84375 0l0 -11.765625q-0.671875 0.640625 -1.765625 1.28125q-1.078125 0.625 -1.9375 0.953125l0 -1.796875q1.546875 -0.71875 2.703125 -1.75q1.171875 -1.046875 1.65625 -2.015625l1.1875 0l0 15.09375z" fill-rule="nonzero"></path><path fill="#000000" d="m116.24227 93.28956l0 -3.203125l3.203125 0l0 3.203125q0 1.765625 -0.625 2.84375q-0.625 1.09375 -1.984375 1.6875l-0.78125 -1.203125q0.890625 -0.390625 1.3125 -1.15625q0.421875 -0.75 0.46875 -2.171875l-1.59375 0zm15.171883 0l6.0625 -8.625l-5.609375 -7.96875l3.515625 0l2.546875 3.890625q0.71875 1.109375 1.15625 1.859375q0.6875 -1.03125 1.265625 -1.828125l2.796875 -3.921875l3.359375 0l-5.734375 7.8125l6.171875 8.78125l-3.453125 0l-3.40625 -5.15625l-0.90625 -1.390625l-4.359375 6.546875l-3.40625 0z" fill-rule="nonzero"></path><path fill="#000000" d="m157.7579 103.50831l0 1.78125l-9.9375 0q-0.03125 -0.671875 0.203125 -1.28125q0.390625 -1.015625 1.21875 -2.0q0.84375 -0.984375 2.421875 -2.28125q2.453125 -2.0 3.3125 -3.171875q0.859375 -1.1875 0.859375 -2.234375q0 -1.09375 -0.796875 -1.84375q-0.78125 -0.75 -2.03125 -0.75q-1.34375 0 -2.140625 0.796875q-0.796875 0.796875 -0.8125 2.21875l-1.890625 -0.203125q0.1875 -2.125 1.453125 -3.234375q1.28125 -1.109375 3.421875 -1.109375q2.171875 0 3.421875 1.203125q1.265625 1.203125 1.265625 2.96875q0 0.90625 -0.375 1.78125q-0.359375 0.859375 -1.21875 1.828125q-0.859375 0.96875 -2.84375 2.640625q-1.65625 1.40625 -2.140625 1.90625q-0.46875 0.484375 -0.765625 0.984375l7.375 0z" fill-rule="nonzero"></path><path fill="#000000" d="m161.88522 93.28956l0 -3.203125l3.203125 0l0 3.203125q0 1.765625 -0.625 2.84375q-0.625 1.09375 -1.984375 1.6875l-0.78125 -1.203125q0.890625 -0.390625 1.3125 -1.15625q0.421875 -0.75 0.46875 -2.171875l-1.59375 0zm18.671875 0l0 -3.203125l3.203125 0l0 3.203125l-3.203125 0zm10.671875 0l0 -3.203125l3.203125 0l0 3.203125l-3.203125 0zm10.65625 0l0 -3.203125l3.21875 0l0 3.203125l-3.21875 0zm9.78125 0l0 -3.203125l3.203125 0l0 3.203125q0 1.765625 -0.625 2.84375q-0.625 1.09375 -1.984375 1.6875l-0.78125 -1.203125q0.890625 -0.390625 1.3125 -1.15625q0.421875 -0.75 0.46875 -2.171875l-1.59375 0zm15.171875 0l6.0625 -8.625l-5.609375 -7.96875l3.515625 0l2.546875 3.890625q0.71875 1.109375 1.15625 1.859375q0.6875 -1.03125 1.265625 -1.828125l2.796875 -3.921875l3.359375 0l-5.734375 7.8125l6.171875 8.78125l-3.453125 0l-3.40625 -5.15625l-0.90625 -1.390625l-4.359375 6.546875l-3.40625 0z" fill-rule="nonzero"></path><path fill="#000000" d="m243.9946 109.46143l0 -15.0625l1.671875 0l0 1.421875q0.59375 -0.84375 1.34375 -1.25q0.75 -0.421875 1.8125 -0.421875q1.40625 0 2.46875 0.71875q1.0625 0.71875 1.609375 2.03125q0.546875 1.3125 0.546875 2.859375q0 1.671875 -0.609375 3.015625q-0.59375 1.34375 -1.734375 2.0625q-1.140625 0.703125 -2.40625 0.703125q-0.921875 0 -1.65625 -0.390625q-0.734375 -0.390625 -1.203125 -0.984375l0 5.296875l-1.84375 0zm1.671875 -9.5625q0 2.109375 0.84375 3.125q0.859375 1.0 2.0625 1.0q1.234375 0 2.109375 -1.046875q0.875 -1.046875 0.875 -3.21875q0 -2.09375 -0.859375 -3.125q-0.859375 -1.03125 -2.046875 -1.03125q-1.171875 0 -2.078125 1.109375q-0.90625 1.09375 -0.90625 3.1875z" fill-rule="nonzero"></path><path fill="#000000" d="m261.27817 99.64893l-6.203125 0l0 -2.328125l3.390625 0l0 -24.609375l-3.390625 0l0 -2.328125l6.203125 0l0 29.265625z" fill-rule="nonzero"></path><path fill="#000000" fill-opacity="0.0" d="m514.7651 42.278214l167.30713 0l0 91.244095l-167.30713 0z" fill-rule="nonzero"></path><path fill="#000000" d="m542.24664 59.76071q1.015625 0 2.0 0.53125q0.984375 0.515625 1.53125 1.5q0.546875 0.984375 0.546875 2.046875q0 1.6875 -1.203125 2.890625q-1.1875 1.203125 -2.875 1.203125q-1.703125 0 -2.90625 -1.203125q-1.1875 -1.203125 -1.1875 -2.890625q0 -1.0625 0.546875 -2.046875q0.546875 -0.984375 1.53125 -1.5q0.984375 -0.53125 2.015625 -0.53125z" fill-rule="nonzero"></path><path fill="#000000" d="m573.2651 69.19821l0 -13.59375l6.03125 0q1.8125 0 2.75 0.359375q0.953125 0.359375 1.515625 1.296875q0.5625 0.921875 0.5625 2.046875q0 1.453125 -0.9375 2.453125q-0.921875 0.984375 -2.890625 1.25q0.71875 0.34375 1.09375 0.671875q0.78125 0.734375 1.484375 1.8125l2.375 3.703125l-2.265625 0l-1.796875 -2.828125q-0.796875 -1.21875 -1.3125 -1.875q-0.5 -0.65625 -0.90625 -0.90625q-0.40625 -0.265625 -0.8125 -0.359375q-0.3125 -0.078125 -1.015625 -0.078125l-2.078125 0l0 6.046875l-1.796875 0zm1.796875 -7.59375l3.859375 0q1.234375 0 1.921875 -0.25q0.703125 -0.265625 1.0625 -0.828125q0.375 -0.5625 0.375 -1.21875q0 -0.96875 -0.703125 -1.578125q-0.703125 -0.625 -2.21875 -0.625l-4.296875 0l0 4.5zm17.879211 7.59375l0 -1.453125q-1.140625 1.671875 -3.125 1.671875q-0.859375 0 -1.625 -0.328125q-0.75 -0.34375 -1.125 -0.84375q-0.359375 -0.5 -0.515625 -1.234375q-0.09375 -0.5 -0.09375 -1.5625l0 -6.109375l1.671875 0l0 5.46875q0 1.3125 0.09375 1.765625q0.15625 0.65625 0.671875 1.03125q0.515625 0.375 1.265625 0.375q0.75 0 1.40625 -0.375q0.65625 -0.390625 0.921875 -1.046875q0.28125 -0.671875 0.28125 -1.9375l0 -5.28125l1.671875 0l0 9.859375l-1.5 0zm3.8913574 0l0 -13.59375l1.671875 0l0 13.59375l-1.671875 0zm10.926086 -3.171875l1.71875 0.21875q-0.40625 1.5 -1.515625 2.34375q-1.09375 0.828125 -2.8125 0.828125q-2.15625 0 -3.421875 -1.328125q-1.265625 -1.328125 -1.265625 -3.734375q0 -2.484375 1.265625 -3.859375q1.28125 -1.375 3.328125 -1.375q1.984375 0 3.234375 1.34375q1.25 1.34375 1.25 3.796875q0 0.140625 -0.015625 0.4375l-7.34375 0q0.09375 1.625 0.921875 2.484375q0.828125 0.859375 2.0625 0.859375q0.90625 0 1.546875 -0.46875q0.65625 -0.484375 1.046875 -1.546875zm-5.484375 -2.703125l5.5 0q-0.109375 -1.234375 -0.625 -1.859375q-0.796875 -0.96875 -2.078125 -0.96875q-1.140625 0 -1.9375 0.78125q-0.78125 0.765625 -0.859375 2.046875zm8.438171 2.9375l1.65625 -0.265625q0.140625 1.0 0.765625 1.53125q0.640625 0.515625 1.78125 0.515625q1.15625 0 1.703125 -0.46875q0.5625 -0.46875 0.5625 -1.09375q0 -0.5625 -0.484375 -0.890625q-0.34375 -0.21875 -1.703125 -0.5625q-1.84375 -0.46875 -2.5625 -0.796875q-0.703125 -0.34375 -1.078125 -0.9375q-0.359375 -0.609375 -0.359375 -1.328125q0 -0.65625 0.296875 -1.21875q0.3125 -0.5625 0.828125 -0.9375q0.390625 -0.28125 1.0625 -0.484375q0.671875 -0.203125 1.4375 -0.203125q1.171875 0 2.046875 0.34375q0.875 0.328125 1.28125 0.90625q0.421875 0.5625 0.578125 1.515625l-1.625 0.21875q-0.109375 -0.75 -0.65625 -1.171875q-0.53125 -0.4375 -1.5 -0.4375q-1.15625 0 -1.640625 0.390625q-0.484375 0.375 -0.484375 0.875q0 0.328125 0.203125 0.59375q0.203125 0.265625 0.640625 0.4375q0.25 0.09375 1.46875 0.4375q1.765625 0.46875 2.46875 0.765625q0.703125 0.296875 1.09375 0.875q0.40625 0.578125 0.40625 1.4375q0 0.828125 -0.484375 1.578125q-0.484375 0.734375 -1.40625 1.140625q-0.921875 0.390625 -2.078125 0.390625q-1.921875 0 -2.9375 -0.796875q-1.0 -0.796875 -1.28125 -2.359375z" fill-rule="nonzero"></path><path fill="#000000" d="m542.24664 81.76071q1.015625 0 2.0 0.53125q0.984375 0.515625 1.53125 1.5q0.546875 0.984375 0.546875 2.046875q0 1.6875 -1.203125 2.890625q-1.1875 1.203125 -2.875 1.203125q-1.703125 0 -2.90625 -1.203125q-1.1875 -1.203125 -1.1875 -2.890625q0 -1.0625 0.546875 -2.046875q0.546875 -0.984375 1.53125 -1.5q0.984375 -0.53125 2.015625 -0.53125z" fill-rule="nonzero"></path><path fill="#000000" d="m571.7338 91.19821l5.234375 -13.59375l1.9375 0l5.5625 13.59375l-2.046875 0l-1.59375 -4.125l-5.6875 0l-1.484375 4.125l-1.921875 0zm3.921875 -5.578125l4.609375 0l-1.40625 -3.78125q-0.65625 -1.703125 -0.96875 -2.8125q-0.265625 1.3125 -0.734375 2.59375l-1.5 4.0zm9.7717285 5.578125l0 -13.59375l1.671875 0l0 13.59375l-1.671875 0zm3.8792114 0.8125l1.609375 0.25q0.109375 0.75 0.578125 1.09375q0.609375 0.453125 1.6875 0.453125q1.171875 0 1.796875 -0.46875q0.625 -0.453125 0.859375 -1.28125q0.125 -0.515625 0.109375 -2.15625q-1.09375 1.296875 -2.71875 1.296875q-2.03125 0 -3.15625 -1.46875q-1.109375 -1.46875 -1.109375 -3.515625q0 -1.40625 0.515625 -2.59375q0.515625 -1.203125 1.484375 -1.84375q0.96875 -0.65625 2.265625 -0.65625q1.75 0 2.875 1.40625l0 -1.1875l1.546875 0l0 8.515625q0 2.3125 -0.46875 3.265625q-0.46875 0.96875 -1.484375 1.515625q-1.015625 0.5625 -2.5 0.5625q-1.765625 0 -2.859375 -0.796875q-1.078125 -0.796875 -1.03125 -2.390625zm1.375 -5.921875q0 1.953125 0.765625 2.84375q0.78125 0.890625 1.9375 0.890625q1.140625 0 1.921875 -0.890625q0.78125 -0.890625 0.78125 -2.78125q0 -1.8125 -0.8125 -2.71875q-0.796875 -0.921875 -1.921875 -0.921875q-1.109375 0 -1.890625 0.90625q-0.78125 0.890625 -0.78125 2.671875zm8.672546 0.1875q0 -2.734375 1.53125 -4.0625q1.265625 -1.09375 3.09375 -1.09375q2.03125 0 3.3125 1.34375q1.296875 1.328125 1.296875 3.671875q0 1.90625 -0.578125 3.0q-0.5625 1.078125 -1.65625 1.6875q-1.078125 0.59375 -2.375 0.59375q-2.0625 0 -3.34375 -1.328125q-1.28125 -1.328125 -1.28125 -3.8125zm1.71875 0q0 1.890625 0.828125 2.828125q0.828125 0.9375 2.078125 0.9375q1.25 0 2.0625 -0.9375q0.828125 -0.953125 0.828125 -2.890625q0 -1.828125 -0.828125 -2.765625q-0.828125 -0.9375 -2.0625 -0.9375q-1.25 0 -2.078125 0.9375q-0.828125 0.9375 -0.828125 2.828125zm9.266357 4.921875l0 -9.859375l1.5 0l0 1.5q0.578125 -1.046875 1.0625 -1.375q0.484375 -0.34375 1.078125 -0.34375q0.84375 0 1.71875 0.546875l-0.578125 1.546875q-0.609375 -0.359375 -1.234375 -0.359375q-0.546875 0 -0.984375 0.328125q-0.421875 0.328125 -0.609375 0.90625q-0.28125 0.890625 -0.28125 1.953125l0 5.15625l-1.671875 0zm6.2439575 -11.6875l0 -1.90625l1.671875 0l0 1.90625l-1.671875 0zm0 11.6875l0 -9.859375l1.671875 0l0 9.859375l-1.671875 0zm7.7854004 -1.5l0.234375 1.484375q-0.703125 0.140625 -1.265625 0.140625q-0.90625 0 -1.40625 -0.28125q-0.5 -0.296875 -0.703125 -0.75q-0.203125 -0.46875 -0.203125 -1.984375l0 -5.65625l-1.234375 0l0 -1.3125l1.234375 0l0 -2.4375l1.65625 -1.0l0 3.4375l1.6875 0l0 1.3125l-1.6875 0l0 5.75q0 0.71875 0.078125 0.921875q0.09375 0.203125 0.296875 0.328125q0.203125 0.125 0.578125 0.125q0.265625 0 0.734375 -0.078125zm1.5270996 1.5l0 -13.59375l1.671875 0l0 4.875q1.171875 -1.359375 2.953125 -1.359375q1.09375 0 1.890625 0.4375q0.8125 0.421875 1.15625 1.1875q0.359375 0.765625 0.359375 2.203125l0 6.25l-1.671875 0l0 -6.25q0 -1.25 -0.546875 -1.8125q-0.546875 -0.578125 -1.53125 -0.578125q-0.75 0 -1.40625 0.390625q-0.640625 0.375 -0.921875 1.046875q-0.28125 0.65625 -0.28125 1.8125l0 5.390625l-1.671875 0zm10.375671 0l0 -9.859375l1.5 0l0 1.390625q0.453125 -0.71875 1.21875 -1.15625q0.78125 -0.453125 1.765625 -0.453125q1.09375 0 1.796875 0.453125q0.703125 0.453125 0.984375 1.28125q1.171875 -1.734375 3.046875 -1.734375q1.46875 0 2.25 0.8125q0.796875 0.8125 0.796875 2.5l0 6.765625l-1.671875 0l0 -6.203125q0 -1.0 -0.15625 -1.4375q-0.15625 -0.453125 -0.59375 -0.71875q-0.421875 -0.265625 -1.0 -0.265625q-1.03125 0 -1.71875 0.6875q-0.6875 0.6875 -0.6875 2.21875l0 5.71875l-1.671875 0l0 -6.40625q0 -1.109375 -0.40625 -1.65625q-0.40625 -0.5625 -1.34375 -0.5625q-0.703125 0 -1.3125 0.375q-0.59375 0.359375 -0.859375 1.078125q-0.265625 0.71875 -0.265625 2.0625l0 5.109375l-1.671875 0zm14.8689575 -2.9375l1.65625 -0.265625q0.140625 1.0 0.765625 1.53125q0.640625 0.515625 1.78125 0.515625q1.15625 0 1.703125 -0.46875q0.5625 -0.46875 0.5625 -1.09375q0 -0.5625 -0.484375 -0.890625q-0.34375 -0.21875 -1.703125 -0.5625q-1.84375 -0.46875 -2.5625 -0.796875q-0.703125 -0.34375 -1.078125 -0.9375q-0.359375 -0.609375 -0.359375 -1.328125q0 -0.65625 0.296875 -1.21875q0.3125 -0.5625 0.828125 -0.9375q0.390625 -0.28125 1.0625 -0.484375q0.671875 -0.203125 1.4375 -0.203125q1.171875 0 2.046875 0.34375q0.875 0.328125 1.28125 0.90625q0.421875 0.5625 0.578125 1.515625l-1.625 0.21875q-0.109375 -0.75 -0.65625 -1.171875q-0.53125 -0.4375 -1.5 -0.4375q-1.15625 0 -1.640625 0.390625q-0.484375 0.375 -0.484375 0.875q0 0.328125 0.203125 0.59375q0.203125 0.265625 0.640625 0.4375q0.25 0.09375 1.46875 0.4375q1.765625 0.46875 2.46875 0.765625q0.703125 0.296875 1.09375 0.875q0.40625 0.578125 0.40625 1.4375q0 0.828125 -0.484375 1.578125q-0.484375 0.734375 -1.40625 1.140625q-0.921875 0.390625 -2.078125 0.390625q-1.921875 0 -2.9375 -0.796875q-1.0 -0.796875 -1.28125 -2.359375z" fill-rule="nonzero"></path><path fill="#000000" d="m542.24664 103.76071q1.015625 0 2.0 0.53125q0.984375 0.515625 1.53125 1.5q0.546875 0.984375 0.546875 2.046875q0 1.6875 -1.203125 2.890625q-1.1875 1.203125 -2.875 1.203125q-1.703125 0 -2.90625 -1.203125q-1.1875 -1.203125 -1.1875 -2.890625q0 -1.0625 0.546875 -2.046875q0.546875 -0.984375 1.53125 -1.5q0.984375 -0.53125 2.015625 -0.53125z" fill-rule="nonzero"></path><path fill="#000000" d="m573.3276 113.19821l0 -13.59375l9.171875 0l0 1.59375l-7.375 0l0 4.21875l6.375 0l0 1.609375l-6.375 0l0 6.171875l-1.796875 0zm10.458496 -4.921875q0 -2.734375 1.53125 -4.0625q1.265625 -1.09375 3.09375 -1.09375q2.03125 0 3.3125 1.34375q1.296875 1.328125 1.296875 3.671875q0 1.90625 -0.578125 3.0q-0.5625 1.078125 -1.65625 1.6875q-1.078125 0.59375 -2.375 0.59375q-2.0625 0 -3.34375 -1.328125q-1.28125 -1.328125 -1.28125 -3.8125zm1.71875 0q0 1.890625 0.828125 2.828125q0.828125 0.9375 2.078125 0.9375q1.25 0 2.0625 -0.9375q0.828125 -0.953125 0.828125 -2.890625q0 -1.828125 -0.828125 -2.765625q-0.828125 -0.9375 -2.0625 -0.9375q-1.25 0 -2.078125 0.9375q-0.828125 0.9375 -0.828125 2.828125zm9.266357 4.921875l0 -9.859375l1.5 0l0 1.5q0.578125 -1.046875 1.0625 -1.375q0.484375 -0.34375 1.078125 -0.34375q0.84375 0 1.71875 0.546875l-0.578125 1.546875q-0.609375 -0.359375 -1.234375 -0.359375q-0.546875 0 -0.984375 0.328125q-0.421875 0.328125 -0.609375 0.90625q-0.28125 0.890625 -0.28125 1.953125l0 5.15625l-1.671875 0zm6.2282715 0l0 -9.859375l1.5 0l0 1.390625q0.453125 -0.71875 1.21875 -1.15625q0.78125 -0.453125 1.765625 -0.453125q1.09375 0 1.796875 0.453125q0.703125 0.453125 0.984375 1.28125q1.171875 -1.734375 3.046875 -1.734375q1.46875 0 2.25 0.8125q0.796875 0.8125 0.796875 2.5l0 6.765625l-1.671875 0l0 -6.203125q0 -1.0 -0.15625 -1.4375q-0.15625 -0.453125 -0.59375 -0.71875q-0.421875 -0.265625 -1.0 -0.265625q-1.03125 0 -1.71875 0.6875q-0.6875 0.6875 -0.6875 2.21875l0 5.71875l-1.671875 0l0 -6.40625q0 -1.109375 -0.40625 -1.65625q-0.40625 -0.5625 -1.34375 -0.5625q-0.703125 0 -1.3125 0.375q-0.59375 0.359375 -0.859375 1.078125q-0.265625 0.71875 -0.265625 2.0625l0 5.109375l-1.671875 0zm21.993958 0l0 -1.453125q-1.140625 1.671875 -3.125 1.671875q-0.859375 0 -1.625 -0.328125q-0.75 -0.34375 -1.125 -0.84375q-0.359375 -0.5 -0.515625 -1.234375q-0.09375 -0.5 -0.09375 -1.5625l0 -6.109375l1.671875 0l0 5.46875q0 1.3125 0.09375 1.765625q0.15625 0.65625 0.671875 1.03125q0.515625 0.375 1.265625 0.375q0.75 0 1.40625 -0.375q0.65625 -0.390625 0.921875 -1.046875q0.28125 -0.671875 0.28125 -1.9375l0 -5.28125l1.671875 0l0 9.859375l-1.5 0zm3.8913574 0l0 -13.59375l1.671875 0l0 13.59375l-1.671875 0zm10.613525 -1.21875q-0.9375 0.796875 -1.796875 1.125q-0.859375 0.3125 -1.84375 0.3125q-1.609375 0 -2.484375 -0.78125q-0.875 -0.796875 -0.875 -2.03125q0 -0.734375 0.328125 -1.328125q0.328125 -0.59375 0.859375 -0.953125q0.53125 -0.359375 1.203125 -0.546875q0.5 -0.140625 1.484375 -0.25q2.03125 -0.25 2.984375 -0.578125q0 -0.34375 0 -0.4375q0 -1.015625 -0.46875 -1.4375q-0.640625 -0.5625 -1.90625 -0.5625q-1.171875 0 -1.734375 0.40625q-0.5625 0.40625 -0.828125 1.46875l-1.640625 -0.234375q0.234375 -1.046875 0.734375 -1.6875q0.515625 -0.640625 1.46875 -0.984375q0.96875 -0.359375 2.25 -0.359375q1.265625 0 2.046875 0.296875q0.78125 0.296875 1.15625 0.75q0.375 0.453125 0.515625 1.140625q0.09375 0.421875 0.09375 1.53125l0 2.234375q0 2.328125 0.09375 2.953125q0.109375 0.609375 0.4375 1.171875l-1.75 0q-0.265625 -0.515625 -0.328125 -1.21875zm-0.140625 -3.71875q-0.90625 0.359375 -2.734375 0.625q-1.03125 0.140625 -1.453125 0.328125q-0.421875 0.1875 -0.65625 0.546875q-0.234375 0.359375 -0.234375 0.796875q0 0.671875 0.5 1.125q0.515625 0.4375 1.484375 0.4375q0.96875 0 1.71875 -0.421875q0.75 -0.4375 1.109375 -1.15625q0.265625 -0.578125 0.265625 -1.671875l0 -0.609375zm3.4069824 2.0l1.65625 -0.265625q0.140625 1.0 0.765625 1.53125q0.640625 0.515625 1.78125 0.515625q1.15625 0 1.703125 -0.46875q0.5625 -0.46875 0.5625 -1.09375q0 -0.5625 -0.484375 -0.890625q-0.34375 -0.21875 -1.703125 -0.5625q-1.84375 -0.46875 -2.5625 -0.796875q-0.703125 -0.34375 -1.078125 -0.9375q-0.359375 -0.609375 -0.359375 -1.328125q0 -0.65625 0.296875 -1.21875q0.3125 -0.5625 0.828125 -0.9375q0.390625 -0.28125 1.0625 -0.484375q0.671875 -0.203125 1.4375 -0.203125q1.171875 0 2.046875 0.34375q0.875 0.328125 1.28125 0.90625q0.421875 0.5625 0.578125 1.515625l-1.625 0.21875q-0.109375 -0.75 -0.65625 -1.171875q-0.53125 -0.4375 -1.5 -0.4375q-1.15625 0 -1.640625 0.390625q-0.484375 0.375 -0.484375 0.875q0 0.328125 0.203125 0.59375q0.203125 0.265625 0.640625 0.4375q0.25 0.09375 1.46875 0.4375q1.765625 0.46875 2.46875 0.765625q0.703125 0.296875 1.09375 0.875q0.40625 0.578125 0.40625 1.4375q0 0.828125 -0.484375 1.578125q-0.484375 0.734375 -1.40625 1.140625q-0.921875 0.390625 -2.078125 0.390625q-1.921875 0 -2.9375 -0.796875q-1.0 -0.796875 -1.28125 -2.359375z" fill-rule="nonzero"></path><path fill="#000000" fill-opacity="0.0" d="m401.89764 34.024933l121.322815 0l0 97.03937l-121.322815 0z" fill-rule="nonzero"></path><path fill="#000000" d="m416.46014 104.464935l0 -28.8125l-4.96875 0l0 -4.375l4.96875 0l0 -3.53125q0 -3.34375 0.59375 -4.96875q0.8125 -2.1875 2.859375 -3.546875q2.046875 -1.359375 5.734375 -1.359375q2.375 0 5.25 0.5625l-0.84375 4.90625q-1.75 -0.3125 -3.3125 -0.3125q-2.5625 0 -3.625 1.09375q-1.0625 1.09375 -1.0625 4.09375l0 3.0625l6.46875 0l0 4.375l-6.46875 0l0 28.8125l-5.59375 0zm27.1875 13.46875q-4.65625 -5.875 -7.875 -13.75q-3.21875 -7.875 -3.21875 -16.3125q0 -7.4375 2.40625 -14.25q2.8125 -7.90625 8.6875 -15.75l4.03125 0q-3.78125 6.5 -5.0 9.28125q-1.90625 4.3125 -3.0 9.0q-1.34375 5.84375 -1.34375 11.75q0 15.03125 9.34375 30.03125l-4.03125 0zm6.8125 -13.46875l12.125 -17.25l-11.21875 -15.9375l7.03125 0l5.09375 7.78125q1.4375 2.21875 2.3125 3.71875q1.375 -2.0625 2.53125 -3.65625l5.59375 -7.84375l6.71875 0l-11.46875 15.625l12.34375 17.5625l-6.90625 0l-6.8125 -10.3125l-1.8125 -2.78125l-8.71875 13.09375l-6.8125 0zm39.4375 13.46875l-4.03125 0q9.34375 -15.0 9.34375 -30.03125q0 -5.875 -1.34375 -11.65625q-1.0625 -4.6875 -2.96875 -9.0q-1.21875 -2.8125 -5.03125 -9.375l4.03125 0q5.875 7.84375 8.6875 15.75q2.40625 6.8125 2.40625 14.25q0 8.4375 -3.234375 16.3125q-3.234375 7.875 -7.859375 13.75z" fill-rule="nonzero"></path><path fill="#000000" fill-opacity="0.0" d="m824.4042 60.24672l63.24414 0l0 55.307083l-63.24414 0z" fill-rule="nonzero"></path><path fill="#000000" d="m835.38855 106.357346l-0.3125 -2.640625q0.921875 0.25 1.609375 0.25q0.9375 0 1.5 -0.3125q0.5625 -0.3125 0.921875 -0.875q0.265625 -0.421875 0.859375 -2.09375q0.078125 -0.234375 0.25 -0.6875l-6.296875 -16.625l3.03125 0l3.453125 9.609375q0.671875 1.828125 1.203125 3.84375q0.484375 -1.9375 1.15625 -3.78125l3.546875 -9.671875l2.8125 0l-6.3125 16.875q-1.015625 2.734375 -1.578125 3.765625q-0.75 1.390625 -1.71875 2.03125q-0.96875 0.65625 -2.3125 0.65625q-0.8125 0 -1.8125 -0.34375z" fill-rule="nonzero"></path><path fill="#000000" fill-opacity="0.0" d="m100.37008 14.275591l161.03937 0l0 33.007874l-161.03937 0z" fill-rule="nonzero"></path><path fill="#000000" d="m111.604454 46.31559l0 -17.187498l2.28125 0l0 17.187498l-2.28125 0zm6.0117188 0l0 -12.453125l1.90625 0l0 1.78125q1.375 -2.0625 3.953125 -2.0625q1.125 0 2.0625 0.40625q0.953125 0.40625 1.421875 1.0625q0.46875 0.65625 0.65625 1.5625q0.125 0.578125 0.125 2.046875l0 7.65625l-2.109375 0l0 -7.578125q0 -1.28125 -0.25 -1.921875q-0.25 -0.640625 -0.875 -1.015625q-0.625 -0.390625 -1.46875 -0.390625q-1.34375 0 -2.328125 0.859375q-0.984375 0.859375 -0.984375 3.25l0 6.796875l-2.109375 0zm13.347649 4.765625l0 -17.21875l1.921875 0l0 1.625q0.6875 -0.953125 1.53125 -1.421875q0.859375 -0.484375 2.078125 -0.484375q1.59375 0 2.8125 0.828125q1.21875 0.8125 1.84375 2.3125q0.625 1.5 0.625 3.28125q0 1.90625 -0.6875 3.4375q-0.6875 1.53125 -2.0 2.34375q-1.296875 0.8125 -2.734375 0.8125q-1.0625 0 -1.90625 -0.4375q-0.828125 -0.453125 -1.375 -1.140625l0 6.0625l-2.109375 0zm1.921875 -10.921875q0 2.40625 0.96875 3.5625q0.96875 1.140625 2.359375 1.140625q1.40625 0 2.40625 -1.1875q1.0 -1.1875 1.0 -3.6875q0 -2.375 -0.984375 -3.5625q-0.96875 -1.1875 -2.328125 -1.1875q-1.359375 0 -2.390625 1.265625q-1.03125 1.25 -1.03125 3.65625zm19.582031 6.15625l0 -1.828125q-1.453125 2.109375 -3.9375 2.109375q-1.109375 0 -2.0625 -0.421875q-0.953125 -0.421875 -1.421875 -1.0625q-0.453125 -0.640625 -0.640625 -1.5625q-0.140625 -0.625 -0.140625 -1.96875l0 -7.71875l2.109375 0l0 6.90625q0 1.65625 0.140625 2.234375q0.1875 0.828125 0.828125 1.3125q0.65625 0.46875 1.609375 0.46875q0.9375 0 1.765625 -0.484375q0.84375 -0.5 1.1875 -1.328125q0.34375 -0.84375 0.34375 -2.4375l0 -6.671875l2.109375 0l0 12.453125l-1.890625 0zm9.800781 -1.890625l0.3125 1.859375q-0.890625 0.203125 -1.59375 0.203125q-1.15625 0 -1.796875 -0.359375q-0.625 -0.375 -0.890625 -0.96875q-0.25 -0.59375 -0.25 -2.484375l0 -7.171875l-1.546875 0l0 -1.640625l1.546875 0l0 -3.078123l2.09375 -1.265625l0 4.343748l2.125 0l0 1.640625l-2.125 0l0 7.28125q0 0.90625 0.109375 1.171875q0.125 0.25 0.375 0.40625q0.25 0.140625 0.71875 0.140625q0.34375 0 0.921875 -0.078125z" fill-rule="nonzero"></path><path stroke="#000000" stroke-width="1.7578125" stroke-linecap="butt" d="m109.37008 48.85856l53.3789 0" fill-rule="nonzero"></path><path fill="#000000" fill-opacity="0.0" d="m799.03937 23.585302l161.03937 0l0 33.007874l-161.03937 0z" fill-rule="nonzero"></path><path fill="#000000" d="m809.1956 47.2503q0 -4.265625 2.296875 -6.6875q2.296875 -2.421875 5.9375 -2.421875q2.375 0 4.28125 1.140625q1.921875 1.125 2.921875 3.171875q1.0 2.03125 1.0 4.609375q0 2.609375 -1.0625 4.671875q-1.046875 2.0625 -2.984375 3.125q-1.9375 1.0625 -4.171875 1.0625q-2.421875 0 -4.34375 -1.171875q-1.90625 -1.171875 -2.890625 -3.203125q-0.984375 -2.03125 -0.984375 -4.296875zm2.34375 0.046875q0 3.09375 1.671875 4.890625q1.671875 1.78125 4.1875 1.78125q2.578125 0 4.234375 -1.796875q1.65625 -1.8125 1.65625 -5.125q0 -2.09375 -0.71875 -3.65625q-0.703125 -1.578125 -2.078125 -2.4375q-1.359375 -0.859375 -3.046875 -0.859375q-2.421875 0 -4.171875 1.65625q-1.734375 1.65625 -1.734375 5.546875zm24.902344 8.328125l0 -1.828125q-1.453125 2.109375 -3.9375 2.109375q-1.109375 0 -2.0625 -0.421875q-0.953125 -0.421875 -1.421875 -1.0625q-0.453125 -0.640625 -0.640625 -1.5625q-0.140625 -0.625 -0.140625 -1.96875l0 -7.71875l2.109375 0l0 6.90625q0 1.65625 0.140625 2.234375q0.1875 0.828125 0.828125 1.3125q0.65625 0.46875 1.609375 0.46875q0.9375 0 1.765625 -0.484375q0.84375 -0.5 1.1875 -1.328125q0.34375 -0.84375 0.34375 -2.4375l0 -6.671875l2.109375 0l0 12.453125l-1.890625 0zm9.800781 -1.890625l0.3125 1.859375q-0.890625 0.203125 -1.59375 0.203125q-1.15625 0 -1.796875 -0.359375q-0.625 -0.375 -0.890625 -0.96875q-0.25 -0.59375 -0.25 -2.484375l0 -7.171875l-1.546875 0l0 -1.640625l1.546875 0l0 -3.078125l2.09375 -1.265625l0 4.34375l2.125 0l0 1.640625l-2.125 0l0 7.28125q0 0.90625 0.109375 1.171875q0.125 0.25 0.375 0.40625q0.25 0.140625 0.71875 0.140625q0.34375 0 0.921875 -0.078125zm2.0585938 6.65625l0 -17.21875l1.921875 0l0 1.625q0.6875 -0.953125 1.53125 -1.421875q0.859375 -0.484375 2.078125 -0.484375q1.59375 0 2.8125 0.828125q1.21875 0.8125 1.84375 2.3125q0.625 1.5 0.625 3.28125q0 1.90625 -0.6875 3.4375q-0.6875 1.53125 -2.0 2.34375q-1.296875 0.8125 -2.734375 0.8125q-1.0625 0 -1.90625 -0.4375q-0.828125 -0.453125 -1.375 -1.140625l0 6.0625l-2.109375 0zm1.921875 -10.921875q0 2.40625 0.96875 3.5625q0.96875 1.140625 2.359375 1.140625q1.40625 0 2.40625 -1.1875q1.0 -1.1875 1.0 -3.6875q0 -2.375 -0.984375 -3.5625q-0.96875 -1.1875 -2.328125 -1.1875q-1.359375 0 -2.390625 1.265625q-1.03125 1.25 -1.03125 3.65625zm19.582031 6.15625l0 -1.828125q-1.453125 2.109375 -3.9375 2.109375q-1.109375 0 -2.0625 -0.421875q-0.953125 -0.421875 -1.421875 -1.0625q-0.453125 -0.640625 -0.640625 -1.5625q-0.140625 -0.625 -0.140625 -1.96875l0 -7.71875l2.109375 0l0 6.90625q0 1.65625 0.140625 2.234375q0.1875 0.828125 0.828125 1.3125q0.65625 0.46875 1.609375 0.46875q0.9375 0 1.765625 -0.484375q0.84375 -0.5 1.1875 -1.328125q0.34375 -0.84375 0.34375 -2.4375l0 -6.671875l2.109375 0l0 12.453125l-1.890625 0zm9.800781 -1.890625l0.3125 1.859375q-0.890625 0.203125 -1.59375 0.203125q-1.15625 0 -1.796875 -0.359375q-0.625 -0.375 -0.890625 -0.96875q-0.25 -0.59375 -0.25 -2.484375l0 -7.171875l-1.546875 0l0 -1.640625l1.546875 0l0 -3.078125l2.09375 -1.265625l0 4.34375l2.125 0l0 1.640625l-2.125 0l0 7.28125q0 0.90625 0.109375 1.171875q0.125 0.25 0.375 0.40625q0.25 0.140625 0.71875 0.140625q0.34375 0 0.921875 -0.078125z" fill-rule="nonzero"></path><path stroke="#000000" stroke-width="1.7578124999999998" stroke-linecap="butt" d="m808.03937 58.16827l72.046875 0" fill-rule="nonzero"></path><path fill="#cfe2f3" d="m302.76642 78.95538l54.42517 0l0 -10.708664l21.417328 21.41732l-21.417328 21.417328l0 -10.708664l-54.42517 0z" fill-rule="nonzero"></path><path stroke="#000000" stroke-width="1.0" stroke-linejoin="round" stroke-linecap="butt" d="m302.76642 78.95538l54.42517 0l0 -10.708664l21.417328 21.41732l-21.417328 21.417328l0 -10.708664l-54.42517 0z" fill-rule="nonzero"></path><path fill="#cfe2f3" d="m711.4278 79.83596l54.425232 0l0 -10.708664l21.417297 21.41732l-21.417297 21.417328l0 -10.708664l-54.425232 0z" fill-rule="nonzero"></path><path stroke="#000000" stroke-width="1.0" stroke-linejoin="round" stroke-linecap="butt" d="m711.4278 79.83596l54.425232 0l0 -10.708664l21.417297 21.41732l-21.417297 21.417328l0 -10.708664l-54.425232 0z" fill-rule="nonzero"></path><path fill="#000000" fill-opacity="0.0" d="m44.485565 128.51706l290.4252 0l0 51.02362l-290.4252 0z" fill-rule="nonzero"></path><path fill="#000000" d="m53.62619 155.43706l3.59375 -5.125l-3.328125 -4.734375l2.09375 0l1.515625 2.3125q0.421875 0.65625 0.671875 1.109375q0.421875 -0.609375 0.765625 -1.09375l1.65625 -2.328125l1.984375 0l-3.390625 4.640625l3.65625 5.21875l-2.046875 0l-2.03125 -3.0625l-0.53125 -0.828125l-2.59375 3.890625l-2.015625 0z" fill-rule="nonzero"></path><path fill="#000000" d="m63.610565 155.06206l0 -1.21875l1.0625 0l0 1.21875l-1.0625 0zm0 7.375l0 -6.21875l1.0625 0l0 6.21875l-1.0625 0z" fill-rule="nonzero"></path><path fill="#000000" d="m73.61954 145.57768l2.515625 0l-0.25 1.28125q0.9375 -0.8125 1.75 -1.15625q0.828125 -0.34375 1.75 -0.34375q1.203125 0 1.90625 0.703125q0.703125 0.6875 0.703125 1.828125q0 0.53125 -0.3125 1.96875l-1.15625 5.578125l-2.65625 0l1.171875 -5.59375q0.25 -1.25 0.25 -1.5q0 -0.5 -0.296875 -0.796875q-0.296875 -0.296875 -0.84375 -0.296875q-0.578125 0 -1.296875 0.5q-0.71875 0.484375 -1.125 1.296875q-0.296875 0.578125 -0.65625 2.34375l-0.859375 4.046875l-2.65625 0l2.0625 -9.859375zm11.333481 0l2.671875 0l-1.21875 5.84375q-0.21875 1.046875 -0.21875 1.3125q0 0.421875 0.3125 0.734375q0.3125 0.296875 0.8125 0.296875q0.34375 0 0.6875 -0.125q0.34375 -0.140625 0.703125 -0.40625q0.359375 -0.28125 0.640625 -0.625q0.296875 -0.359375 0.546875 -0.9375q0.171875 -0.421875 0.390625 -1.390625l0.96875 -4.703125l2.671875 0l-2.0625 9.859375l-2.484375 0l0.28125 -1.34375q-1.640625 1.578125 -3.5625 1.578125q-1.203125 0 -1.90625 -0.6875q-0.6875 -0.703125 -0.6875 -1.875q0 -0.515625 0.3125 -2.03125l1.140625 -5.5zm11.333481 0l2.5 0l-0.25 1.203125q1.46875 -1.421875 3.09375 -1.421875q1.109375 0 1.703125 0.46875q0.609375 0.453125 0.78125 1.265625q0.5 -0.734375 1.453125 -1.234375q0.96875 -0.5 2.0 -0.5q1.171875 0 1.828125 0.625q0.65625 0.625 0.65625 1.671875q0 0.5 -0.25 1.765625l-1.265625 6.015625l-2.65625 0l1.25 -6.015625q0.234375 -1.140625 0.234375 -1.28125q0 -0.40625 -0.25 -0.640625q-0.234375 -0.25 -0.734375 -0.25q-0.984375 0 -1.765625 1.046875q-0.5625 0.75 -0.96875 2.671875l-0.9375 4.46875l-2.65625 0l1.234375 -5.953125q0.21875 -1.03125 0.21875 -1.34375q0 -0.390625 -0.265625 -0.640625q-0.265625 -0.25 -0.734375 -0.25q-0.4375 0 -0.90625 0.265625q-0.453125 0.265625 -0.796875 0.71875q-0.34375 0.453125 -0.609375 1.15625q-0.109375 0.34375 -0.359375 1.515625l-0.9375 4.53125l-2.671875 0l2.0625 -9.859375zm24.213394 5.765625l-6.6875 0q0 0.15625 0 0.234375q0 0.984375 0.546875 1.59375q0.5625 0.59375 1.375 0.59375q1.328125 0 2.0625 -1.375l2.390625 0.40625q-0.6875 1.4375 -1.859375 2.15625q-1.171875 0.71875 -2.609375 0.71875q-1.984375 0 -3.234375 -1.25q-1.234375 -1.265625 -1.234375 -3.328125q0 -2.03125 1.125 -3.609375q1.515625 -2.125 4.359375 -2.125q1.8125 0 2.875 1.125q1.078125 1.109375 1.078125 3.125q0 0.953125 -0.1875 1.734375zm-2.25 -1.625q0.015625 -0.1875 0.015625 -0.28125q0 -1.09375 -0.5 -1.640625q-0.484375 -0.546875 -1.3125 -0.546875q-0.828125 0 -1.484375 0.625q-0.65625 0.625 -0.890625 1.84375l4.171875 0zm4.938217 -4.140625l2.484375 0l-0.390625 1.921875q1.390625 -2.140625 3.015625 -2.140625q0.5625 0 1.234375 0.28125l-1.03125 2.1875q-0.359375 -0.140625 -0.765625 -0.140625q-0.6875 0 -1.40625 0.53125q-0.703125 0.515625 -1.109375 1.390625q-0.390625 0.859375 -0.78125 2.734375l-0.640625 3.09375l-2.671875 0l2.0625 -9.859375zm8.182144 -3.734375l2.671875 0l-0.5 2.40625l-2.671875 0l0.5 -2.40625zm-0.765625 3.734375l2.65625 0l-2.0625 9.859375l-2.65625 0l2.0625 -9.859375zm9.792679 6.140625l2.59375 0.421875q-0.640625 1.734375 -1.890625 2.640625q-1.25 0.890625 -2.90625 0.890625q-1.890625 0 -3.0 -1.125q-1.09375 -1.125 -1.09375 -3.09375q0 -1.59375 0.671875 -3.015625q0.671875 -1.4375 2.015625 -2.25q1.34375 -0.828125 2.9375 -0.828125q1.75 0 2.78125 0.90625q1.046875 0.90625 1.171875 2.390625l-2.53125 0.265625q-0.09375 -0.828125 -0.5 -1.21875q-0.40625 -0.390625 -1.078125 -0.390625q-0.78125 0 -1.453125 0.578125q-0.65625 0.578125 -1.015625 1.734375q-0.359375 1.140625 -0.359375 2.140625q0 0.875 0.421875 1.34375q0.4375 0.46875 1.078125 0.46875q0.640625 0 1.234375 -0.453125q0.59375 -0.46875 0.921875 -1.40625z" fill-rule="nonzero"></path><path fill="#000000" d="m149.14383 150.51518q0 -2.734375 1.53125 -4.0625q1.265625 -1.09375 3.09375 -1.09375q2.03125 0 3.3125 1.34375q1.296875 1.328125 1.296875 3.671875q0 1.90625 -0.578125 3.0q-0.5625 1.078125 -1.65625 1.6875q-1.078125 0.59375 -2.375 0.59375q-2.0625 0 -3.34375 -1.328125q-1.28125 -1.328125 -1.28125 -3.8125zm1.71875 0q0 1.890625 0.828125 2.828125q0.828125 0.9375 2.078125 0.9375q1.25 0 2.0625 -0.9375q0.828125 -0.953125 0.828125 -2.890625q0 -1.828125 -0.828125 -2.765625q-0.828125 -0.9375 -2.0625 -0.9375q-1.25 0 -2.078125 0.9375q-0.828125 0.9375 -0.828125 2.828125zm9.266342 4.921875l0 -9.859375l1.5 0l0 1.5q0.578125 -1.046875 1.0625 -1.375q0.484375 -0.34375 1.078125 -0.34375q0.84375 0 1.71875 0.546875l-0.578125 1.546875q-0.609375 -0.359375 -1.234375 -0.359375q-0.546875 0 -0.984375 0.328125q-0.421875 0.328125 -0.609375 0.90625q-0.28125 0.890625 -0.28125 1.953125l0 5.15625l-1.671875 0z" fill-rule="nonzero"></path><path fill="#000000" d="m177.72803 151.7183l2.59375 0.421875q-0.640625 1.734375 -1.890625 2.640625q-1.25 0.890625 -2.90625 0.890625q-1.890625 0 -3.0 -1.125q-1.09375 -1.125 -1.09375 -3.09375q0 -1.59375 0.671875 -3.015625q0.671875 -1.4375 2.015625 -2.25q1.34375 -0.828125 2.9375 -0.828125q1.75 0 2.78125 0.90625q1.046875 0.90625 1.171875 2.390625l-2.53125 0.265625q-0.09375 -0.828125 -0.5 -1.21875q-0.40625 -0.390625 -1.078125 -0.390625q-0.78125 0 -1.453125 0.578125q-0.65625 0.578125 -1.015625 1.734375q-0.359375 1.140625 -0.359375 2.140625q0 0.875 0.421875 1.34375q0.4375 0.46875 1.078125 0.46875q0.640625 0 1.234375 -0.453125q0.59375 -0.46875 0.921875 -1.40625zm7.453842 -3.34375l-2.59375 -0.21875q0.4375 -1.3125 1.546875 -2.046875q1.109375 -0.75 2.9375 -0.75q1.90625 0 2.8125 0.765625q0.90625 0.765625 0.90625 1.859375q0 0.453125 -0.078125 0.953125q-0.078125 0.5 -0.546875 2.625q-0.390625 1.765625 -0.390625 2.46875q0 0.640625 0.21875 1.40625l-2.578125 0q-0.15625 -0.53125 -0.203125 -1.109375q-0.578125 0.640625 -1.34375 1.0q-0.765625 0.34375 -1.53125 0.34375q-1.21875 0 -2.015625 -0.796875q-0.796875 -0.8125 -0.796875 -2.078125q0 -1.40625 0.875 -2.25q0.875 -0.84375 3.125 -1.015625q1.90625 -0.15625 2.546875 -0.390625q0.171875 -0.546875 0.171875 -0.890625q0 -0.421875 -0.34375 -0.703125q-0.34375 -0.296875 -1.03125 -0.296875q-0.703125 0 -1.125 0.296875q-0.40625 0.296875 -0.5625 0.828125zm2.53125 2.46875q-0.234375 0.0625 -0.640625 0.125q-2.0 0.234375 -2.609375 0.703125q-0.4375 0.328125 -0.4375 0.90625q0 0.453125 0.328125 0.78125q0.34375 0.3125 0.890625 0.3125q0.59375 0 1.125 -0.28125q0.546875 -0.296875 0.796875 -0.75q0.265625 -0.46875 0.484375 -1.4375l0.0625 -0.359375zm4.750717 -3.28125l0.421875 -1.984375l1.296875 0l0.3125 -1.578125l3.0625 -1.828125l-0.71875 3.40625l1.625 0l-0.40625 1.984375l-1.640625 0l-0.859375 4.125q-0.234375 1.125 -0.234375 1.28125q0 0.3125 0.1875 0.484375q0.203125 0.171875 0.71875 0.171875q0.171875 0 0.875 -0.078125l-0.40625 1.984375q-0.6875 0.140625 -1.421875 0.140625q-1.40625 0 -2.046875 -0.546875q-0.640625 -0.546875 -0.640625 -1.5q0 -0.453125 0.34375 -2.109375l0.828125 -3.953125l-1.296875 0zm15.150177 3.78125l-6.6875 0q0 0.15625 0 0.234375q0 0.984375 0.546875 1.59375q0.5625 0.59375 1.375 0.59375q1.328125 0 2.0625 -1.375l2.390625 0.40625q-0.6875 1.4375 -1.859375 2.15625q-1.171875 0.71875 -2.609375 0.71875q-1.984375 0 -3.234375 -1.25q-1.234375 -1.265625 -1.234375 -3.328125q0 -2.03125 1.125 -3.609375q1.515625 -2.125 4.359375 -2.125q1.8125 0 2.875 1.125q1.078125 1.109375 1.078125 3.125q0 0.953125 -0.1875 1.734375zm-2.25 -1.625q0.015625 -0.1875 0.015625 -0.28125q0 -1.09375 -0.5 -1.640625q-0.484375 -0.546875 -1.3125 -0.546875q-0.828125 0 -1.484375 0.625q-0.65625 0.625 -0.890625 1.84375l4.171875 0zm2.8913422 6.234375l2.8125 0.40625q0 0.4375 0.140625 0.65625q0.140625 0.21875 0.4375 0.359375q0.3125 0.15625 0.859375 0.15625q0.84375 0 1.34375 -0.328125q0.390625 -0.265625 0.625 -0.84375q0.15625 -0.359375 0.390625 -1.578125l0.078125 -0.453125q-1.375 1.140625 -2.84375 1.140625q-1.453125 0 -2.390625 -1.015625q-0.921875 -1.015625 -0.921875 -2.984375q0 -1.734375 0.625 -3.171875q0.640625 -1.453125 1.78125 -2.1875q1.140625 -0.75 2.328125 -0.75q0.984375 0 1.796875 0.515625q0.8125 0.515625 1.28125 1.453125l0.359375 -1.75l2.5 0l-1.703125 8.21875q-0.421875 1.96875 -0.71875 2.8125q-0.28125 0.84375 -0.65625 1.34375q-0.359375 0.515625 -0.9375 0.84375q-0.5625 0.34375 -1.328125 0.484375q-0.765625 0.15625 -1.671875 0.15625q-2.078125 0 -3.15625 -0.71875q-1.0625 -0.71875 -1.0625 -2.375q0 -0.171875 0.03125 -0.390625zm3.125 -4.75q0 1.109375 0.5 1.703125q0.515625 0.59375 1.28125 0.59375q0.6875 0 1.34375 -0.53125q0.65625 -0.53125 1.0 -1.5q0.359375 -0.96875 0.359375 -1.890625q0 -1.046875 -0.578125 -1.6875q-0.5625 -0.640625 -1.296875 -0.640625q-0.71875 0 -1.328125 0.578125q-0.59375 0.5625 -0.984375 1.734375q-0.296875 0.90625 -0.296875 1.640625zm8.802231 0.140625q0 -2.734375 1.53125 -4.359375q1.546875 -1.625 4.0625 -1.625q2.1875 0 3.40625 1.203125q1.234375 1.1875 1.234375 3.21875q0 2.40625 -1.53125 4.15625q-1.53125 1.734375 -4.109375 1.734375q-1.390625 0 -2.46875 -0.546875q-1.078125 -0.5625 -1.609375 -1.578125q-0.515625 -1.03125 -0.515625 -2.203125zm7.578125 -1.90625q0 -0.9375 -0.546875 -1.5q-0.546875 -0.578125 -1.421875 -0.578125q-0.859375 0 -1.53125 0.53125q-0.671875 0.53125 -1.046875 1.546875q-0.359375 1.015625 -0.359375 1.875q0 1.046875 0.5625 1.671875q0.578125 0.625 1.453125 0.625q1.09375 0 1.84375 -0.9375q1.046875 -1.328125 1.046875 -3.234375zm5.333481 -3.859375l2.484375 0l-0.390625 1.921875q1.390625 -2.140625 3.015625 -2.140625q0.5625 0 1.234375 0.28125l-1.03125 2.1875q-0.359375 -0.140625 -0.765625 -0.140625q-0.6875 0 -1.40625 0.53125q-0.703125 0.515625 -1.109375 1.390625q-0.390625 0.859375 -0.78125 2.734375l-0.640625 3.09375l-2.671875 0l2.0625 -9.859375zm8.182144 -3.734375l2.671875 0l-0.5 2.40625l-2.671875 0l0.5 -2.40625zm-0.765625 3.734375l2.65625 0l-2.0625 9.859375l-2.65625 0l2.0625 -9.859375zm9.792679 6.140625l2.59375 0.421875q-0.640625 1.734375 -1.890625 2.640625q-1.25 0.890625 -2.90625 0.890625q-1.890625 0 -3.0 -1.125q-1.09375 -1.125 -1.09375 -3.09375q0 -1.59375 0.671875 -3.015625q0.671875 -1.4375 2.015625 -2.25q1.34375 -0.828125 2.9375 -0.828125q1.75 0 2.78125 0.90625q1.046875 0.90625 1.171875 2.390625l-2.53125 0.265625q-0.09375 -0.828125 -0.5 -1.21875q-0.40625 -0.390625 -1.078125 -0.390625q-0.78125 0 -1.453125 0.578125q-0.65625 0.578125 -1.015625 1.734375q-0.359375 1.140625 -0.359375 2.140625q0 0.875 0.421875 1.34375q0.4375 0.46875 1.078125 0.46875q0.640625 0 1.234375 -0.453125q0.59375 -0.46875 0.921875 -1.40625zm7.453842 -3.34375l-2.59375 -0.21875q0.4375 -1.3125 1.546875 -2.046875q1.109375 -0.75 2.9375 -0.75q1.90625 0 2.8125 0.765625q0.90625 0.765625 0.90625 1.859375q0 0.453125 -0.078125 0.953125q-0.078125 0.5 -0.546875 2.625q-0.390625 1.765625 -0.390625 2.46875q0 0.640625 0.21875 1.40625l-2.578125 0q-0.15625 -0.53125 -0.203125 -1.109375q-0.578125 0.640625 -1.34375 1.0q-0.765625 0.34375 -1.53125 0.34375q-1.21875 0 -2.015625 -0.796875q-0.796875 -0.8125 -0.796875 -2.078125q0 -1.40625 0.875 -2.25q0.875 -0.84375 3.125 -1.015625q1.90625 -0.15625 2.546875 -0.390625q0.171875 -0.546875 0.171875 -0.890625q0 -0.421875 -0.34375 -0.703125q-0.34375 -0.296875 -1.03125 -0.296875q-0.703125 0 -1.125 0.296875q-0.40625 0.296875 -0.5625 0.828125zm2.53125 2.46875q-0.234375 0.0625 -0.640625 0.125q-2.0 0.234375 -2.609375 0.703125q-0.4375 0.328125 -0.4375 0.90625q0 0.453125 0.328125 0.78125q0.34375 0.3125 0.890625 0.3125q0.59375 0 1.125 -0.28125q0.546875 -0.296875 0.796875 -0.75q0.265625 -0.46875 0.484375 -1.4375l0.0625 -0.359375zm4.078827 4.59375l2.84375 -13.59375l2.65625 0l-2.84375 13.59375l-2.65625 0z" fill-rule="nonzero"></path><path fill="#000000" fill-opacity="0.0" d="m799.2966 128.51706l155.65356 0l0 51.02362l-155.65356 0z" fill-rule="nonzero"></path><path fill="#000000" d="m811.15594 145.57768l2.515625 0l-0.25 1.28125q0.9375 -0.8125 1.75 -1.15625q0.828125 -0.34375 1.75 -0.34375q1.203125 0 1.90625 0.703125q0.703125 0.6875 0.703125 1.828125q0 0.53125 -0.3125 1.96875l-1.15625 5.578125l-2.65625 0l1.171875 -5.59375q0.25 -1.25 0.25 -1.5q0 -0.5 -0.296875 -0.796875q-0.296875 -0.296875 -0.84375 -0.296875q-0.578125 0 -1.296875 0.5q-0.71875 0.484375 -1.125 1.296875q-0.296875 0.578125 -0.65625 2.34375l-0.859375 4.046875l-2.65625 0l2.0625 -9.859375zm11.333496 0l2.671875 0l-1.21875 5.84375q-0.21875 1.046875 -0.21875 1.3125q0 0.421875 0.3125 0.734375q0.3125 0.296875 0.8125 0.296875q0.34375 0 0.6875 -0.125q0.34375 -0.140625 0.703125 -0.40625q0.359375 -0.28125 0.640625 -0.625q0.296875 -0.359375 0.546875 -0.9375q0.171875 -0.421875 0.390625 -1.390625l0.96875 -4.703125l2.671875 0l-2.0625 9.859375l-2.484375 0l0.28125 -1.34375q-1.640625 1.578125 -3.5625 1.578125q-1.203125 0 -1.90625 -0.6875q-0.6875 -0.703125 -0.6875 -1.875q0 -0.515625 0.3125 -2.03125l1.140625 -5.5zm11.333496 0l2.5 0l-0.25 1.203125q1.46875 -1.421875 3.09375 -1.421875q1.109375 0 1.703125 0.46875q0.609375 0.453125 0.78125 1.265625q0.5 -0.734375 1.453125 -1.234375q0.96875 -0.5 2.0 -0.5q1.171875 0 1.828125 0.625q0.65625 0.625 0.65625 1.671875q0 0.5 -0.25 1.765625l-1.265625 6.015625l-2.65625 0l1.25 -6.015625q0.234375 -1.140625 0.234375 -1.28125q0 -0.40625 -0.25 -0.640625q-0.234375 -0.25 -0.734375 -0.25q-0.984375 0 -1.765625 1.046875q-0.5625 0.75 -0.96875 2.671875l-0.9375 4.46875l-2.65625 0l1.234375 -5.953125q0.21875 -1.03125 0.21875 -1.34375q0 -0.390625 -0.265625 -0.640625q-0.265625 -0.25 -0.734375 -0.25q-0.4375 0 -0.90625 0.265625q-0.453125 0.265625 -0.796875 0.71875q-0.34375 0.453125 -0.609375 1.15625q-0.109375 0.34375 -0.359375 1.515625l-0.9375 4.53125l-2.671875 0l2.0625 -9.859375zm24.213379 5.765625l-6.6875 0q0 0.15625 0 0.234375q0 0.984375 0.546875 1.59375q0.5625 0.59375 1.375 0.59375q1.328125 0 2.0625 -1.375l2.390625 0.40625q-0.6875 1.4375 -1.859375 2.15625q-1.171875 0.71875 -2.609375 0.71875q-1.984375 0 -3.234375 -1.25q-1.234375 -1.265625 -1.234375 -3.328125q0 -2.03125 1.125 -3.609375q1.515625 -2.125 4.359375 -2.125q1.8125 0 2.875 1.125q1.078125 1.109375 1.078125 3.125q0 0.953125 -0.1875 1.734375zm-2.25 -1.625q0.015625 -0.1875 0.015625 -0.28125q0 -1.09375 -0.5 -1.640625q-0.484375 -0.546875 -1.3125 -0.546875q-0.828125 0 -1.484375 0.625q-0.65625 0.625 -0.890625 1.84375l4.171875 0zm4.9382324 -4.140625l2.484375 0l-0.390625 1.921875q1.390625 -2.140625 3.015625 -2.140625q0.5625 0 1.234375 0.28125l-1.03125 2.1875q-0.359375 -0.140625 -0.765625 -0.140625q-0.6875 0 -1.40625 0.53125q-0.703125 0.515625 -1.109375 1.390625q-0.390625 0.859375 -0.78125 2.734375l-0.640625 3.09375l-2.671875 0l2.0625 -9.859375zm8.182129 -3.734375l2.671875 0l-0.5 2.40625l-2.671875 0l0.5 -2.40625zm-0.765625 3.734375l2.65625 0l-2.0625 9.859375l-2.65625 0l2.0625 -9.859375zm9.792664 6.140625l2.59375 0.421875q-0.640625 1.734375 -1.890625 2.640625q-1.25 0.890625 -2.90625 0.890625q-1.890625 0 -3.0 -1.125q-1.09375 -1.125 -1.09375 -3.09375q0 -1.59375 0.671875 -3.015625q0.671875 -1.4375 2.015625 -2.25q1.34375 -0.828125 2.9375 -0.828125q1.75 0 2.78125 0.90625q1.046875 0.90625 1.171875 2.390625l-2.53125 0.265625q-0.09375 -0.828125 -0.5 -1.21875q-0.40625 -0.390625 -1.078125 -0.390625q-0.78125 0 -1.453125 0.578125q-0.65625 0.578125 -1.015625 1.734375q-0.359375 1.140625 -0.359375 2.140625q0 0.875 0.421875 1.34375q0.4375 0.46875 1.078125 0.46875q0.640625 0 1.234375 -0.453125q0.59375 -0.46875 0.921875 -1.40625z" fill-rule="nonzero"></path></g></svg>

